<svg xmlns="http://www.w3.org/2000/svg" version="1.1" x="0px" y="0px" width="170px" height="128px" viewBox="0 0 170 128" enable-background="new 0 0 170 128" xml:space="preserve"><rect x="14.5" y="14.5" fill="#E5E5E5" width="12" height="12"/><path fill="#808080" d="M14 14v13h13V14H14zM26 15l-8 8 -3-3v-5H26zM18 26h-3v-3L18 26l8-8v8H18z"/><rect x="28.5" y="14.5" fill="#E5E5E5" width="12" height="12"/><path fill="#B7B7B7" d="M39 16v9h-9v-9H39M40.5 14.5h-12v12h12V14.5L40.5 14.5z"/><path fill="#808080" d="M28 14v13h13V14H28zM40 15l-8 8 -3-3v-5H40zM32 26h-3v-3L32 26l8-8v8H32z"/><path fill="#7ACCB2" d="M66 119c-8.3 0-15-6.7-15-15 0-2.6 0.7-5.2 2-7.5l17.3-30c0.5-0.9 1.5-1.5 2.6-1.5H139c1.1 0 2.1 0.6 2.6 1.5l17.3 30c1.3 2.3 2 4.9 2 7.5 0 8.3-6.7 15-15 15H66z"/><path fill="#69AF98" d="M159.9 96l-17.3-30c-0.8-1.2-2.1-2-3.5-2H72.9c-1.4 0-2.7 0.8-3.5 2L52.1 96c-1.4 2.4-2.1 5.2-2.1 8 0 8.8 7.2 16 16 16h80c8.8 0 16-7.2 16-16C162 101.2 161.3 98.4 159.9 96zM146 116H66c-6.6 0-12-5.4-12-12 0-2.2 0.5-4.2 1.6-6l17.3-29.9c0 0 0-0.1 0.1-0.1l66.1 0 17.3 30c1.1 1.9 1.6 4 1.6 6C158 110.6 152.6 116 146 116z"/><path fill="#1A1A1A" d="M166.8 92l-31.1-53.9c-1.1-1.8-1.6-3.9-1.6-6V16c0-2.5 0.6-5 1.7-7.3 1-1.9 0.9-4.1-0.2-5.9 -1.1-1.8-3-2.9-5.1-2.9H81.6c-2.1 0-4 1.1-5.1 2.9s-1.2 4-0.2 5.9C77.4 11 78 13.5 78 16v16.1c0 2.1-0.6 4.2-1.6 6L45.2 92c-2.1 3.6-3.2 7.8-3.2 12 0 13.2 10.8 24 24 24h80c13.2 0 24-10.8 24-24C170 99.8 168.9 95.6 166.8 92zM146 124H66c-11 0-20-9-20-20 0-3.5 0.9-7 2.7-10l31.1-53.9c1.4-2.4 2.1-5.2 2.1-8V16c0-3.2-0.8-6.3-2.2-9.1 -0.3-0.6-0.3-1.4 0.1-2s1-1 1.7-1h48.9c0.7 0 1.3 0.4 1.7 1s0.4 1.3 0.1 2c-1.4 2.8-2.2 5.9-2.2 9.1v16.1c0 2.8 0.7 5.6 2.1 8L139 52h-33c-1.1 0-2 0.9-2 2s0.9 2 2 2h35.4l10.4 18h-33.1c-1.1 0-2 0.9-2 2s0.9 2 2 2h35.4l9.2 16c0.4 0.6 0.7 1.3 1 2h-32.9c-1.1 0-2 0.9-2 2s0.9 2 2 2h34.2c0.3 1.3 0.4 2.7 0.4 4C166 115 157 124 146 124z"/><path fill="#808080" d="M12 1v11H1V1H12M13 0H0v13h13V0L13 0z"/><path fill="#808080" d="M6.5 29c3 0 5.5 2.5 5.5 5.5S9.5 40 6.5 40 1 37.5 1 34.5 3.5 29 6.5 29M6.5 28C2.9 28 0 30.9 0 34.5S2.9 41 6.5 41s6.5-2.9 6.5-6.5S10.1 28 6.5 28L6.5 28z"/><path fill="#E5E5E5" d="M20.5 40.5c-3.3 0-6-2.7-6-6s2.7-6 6-6 6 2.7 6 6S23.8 40.5 20.5 40.5z"/><path fill="#808080" d="M20.5 29c3 0 5.5 2.5 5.5 5.5S23.5 40 20.5 40 15 37.5 15 34.5 17.5 29 20.5 29M20.5 28c-3.6 0-6.5 2.9-6.5 6.5s2.9 6.5 6.5 6.5 6.5-2.9 6.5-6.5S24.1 28 20.5 28L20.5 28z"/><path fill="#E5E5E5" d="M34.5 40.5c-3.3 0-6-2.7-6-6s2.7-6 6-6 6 2.7 6 6S37.8 40.5 34.5 40.5z"/><path fill="#B7B7B7" d="M34.5 30c2.5 0 4.5 2 4.5 4.5S37 39 34.5 39 30 37 30 34.5 32 30 34.5 30M34.5 28.5c-3.3 0-6 2.7-6 6s2.7 6 6 6 6-2.7 6-6S37.8 28.5 34.5 28.5L34.5 28.5z"/><path fill="#808080" d="M34.5 29c3 0 5.5 2.5 5.5 5.5S37.5 40 34.5 40 29 37.5 29 34.5 31.5 29 34.5 29M34.5 28c-3.6 0-6.5 2.9-6.5 6.5s2.9 6.5 6.5 6.5 6.5-2.9 6.5-6.5S38.1 28 34.5 28L34.5 28z"/><path fill="#808080" d="M6.5 43c3 0 5.5 2.5 5.5 5.5S9.5 54 6.5 54 1 51.5 1 48.5 3.5 43 6.5 43M6.5 42C2.9 42 0 44.9 0 48.5S2.9 55 6.5 55s6.5-2.9 6.5-6.5S10.1 42 6.5 42L6.5 42z"/><circle fill="#808080" cx="6.5" cy="48.5" r="3.5"/><path fill="#E5E5E5" d="M20.5 54.5c-3.3 0-6-2.7-6-6s2.7-6 6-6 6 2.7 6 6S23.8 54.5 20.5 54.5z"/><path fill="#808080" d="M20.5 43c3 0 5.5 2.5 5.5 5.5S23.5 54 20.5 54 15 51.5 15 48.5 17.5 43 20.5 43M20.5 42c-3.6 0-6.5 2.9-6.5 6.5s2.9 6.5 6.5 6.5 6.5-2.9 6.5-6.5S24.1 42 20.5 42L20.5 42z"/><circle fill="#808080" cx="20.5" cy="48.5" r="3.5"/><path fill="#E5E5E5" d="M34.5 54.5c-3.3 0-6-2.7-6-6s2.7-6 6-6 6 2.7 6 6S37.8 54.5 34.5 54.5z"/><path fill="#B7B7B7" d="M34.5 44c2.5 0 4.5 2 4.5 4.5S37 53 34.5 53 30 51 30 48.5 32 44 34.5 44M34.5 42.5c-3.3 0-6 2.7-6 6s2.7 6 6 6 6-2.7 6-6S37.8 42.5 34.5 42.5L34.5 42.5z"/><path fill="#808080" d="M34.5 43c3 0 5.5 2.5 5.5 5.5S37.5 54 34.5 54 29 51.5 29 48.5 31.5 43 34.5 43M34.5 42c-3.6 0-6.5 2.9-6.5 6.5s2.9 6.5 6.5 6.5 6.5-2.9 6.5-6.5S38.1 42 34.5 42L34.5 42z"/><circle fill="#808080" cx="34.5" cy="48.5" r="3.5"/><path fill="#808080" d="M0 14v13h13V14H0zM12 15l-8 8 -3-3v-5H12zM4 26H1v-3L4 26l8-8v8H4z"/><rect x="0.5" y="109.5" fill="#E5E5E5" width="15" height="15"/><path fill="#B7B7B7" d="M14 123H2v-12h12V123zM15.5 109.5h-15v15h15V109.5z"/><path fill="#808080" d="M0 109v16h16v-16H0zM15 110v2l-7 7 -7-7v-2H15zM1 124v-9l7 7 7-7v9H1z"/><rect x="0.5" y="86.5" fill="#E5E5E5" width="15" height="15"/><path fill="#808080" d="M0 86v16h16V86H0zM15 87v2l-7 7 -7-7v-2H15zM1 101v-9l7 7 7-7v9H1z"/><path fill="#808080" d="M0 63v16h16V63H0zM15 64v2l-7 7 -7-7v-2H15zM1 78v-9l7 7 7-7v9H1z"/><rect x="14.5" y="0.5" fill="#E5E5E5" width="12" height="12"/><path fill="#808080" d="M26 1v11H15V1H26M27 0H14v13h13V0L27 0z"/><rect x="28.5" y="0.5" fill="#E5E5E5" width="12" height="12"/><path fill="#B7B7B7" d="M39 2v9h-9V2H39M40.5 0.5h-12v12h12V0.5L40.5 0.5z"/><path fill="#808080" d="M40 1v11H29V1H40M41 0H28v13h13V0L41 0z"/><polygon fill="#808080" points="36,56 34.5,56 29.5,61 24.5,56 23,56 23,57.5 28,62.5 23,67.5 23,69 24.5,69 29.5,64 34.5,69 36,69   36,67.5 31,62.5 36,57.5 "/><polygon fill="#808080" points="31,70 30,70 27,73 24,70 23,70 23,71 26,74 23,77 23,78 24,78 27,75 30,78 31,78 31,77 28,74 31,71   "/><polygon fill="#808080" points="28,79 27.5,79 25.5,81 23.5,79 23,79 23,79.5 25,81.5 23,83.5 23,84 23.5,84 25.5,82 27.5,84 28,84   28,83.5 26,81.5 28,79.5 "/></svg>